<svg xmlns="http://www.w3.org/2000/svg" viewBox="0 0 100 100"><path d="M20.6 65.6h-6.5c-1.6 0-2.5-.8-2.5-2.5v-7.4c0-1.6 1-2.7 2.7-2.7h4.3v-7.3H14c-1.4 0-2.3-1-2.3-2.3v-8.1c0-1.4.9-2.1 2.2-2.1h7c.5-1.3.9-2.5 1.4-3.7 3.6-8.8 9.4-15.9 17.3-21.3C45.4 4.3 51.7 1.7 58.7.6c4.5-.7 9-.8 13.4-.3 2.6.3 5.2.8 7.7 1.2 1.7.3 2.8 1.5 2.2 3.6-1.1 3.4-2 6.9-2.9 10.3-.4 1.6-1.3 2.1-2.9 1.7-6-1.3-12-1.8-18-.1-8.5 2.4-14.6 7.6-18.3 15.6 0 .1-.1.2-.2.5h32.9c2 0 2.9 1.1 2.5 3-.5 2.5-1.1 5.1-1.6 7.6-.3 1.3-1 1.9-2.3 1.9H36.5v7.3h31.8c.5 0 1 0 1.4.2 1.2.4 1.9 1.4 1.6 2.7-.5 2.5-1.1 5.1-1.6 7.6-.4 1.6-1 2.1-2.7 2.1H39.9c.1.3.2.6.3.8 4.4 9.6 11.8 15.4 22.2 17 5.2.8 10.4.1 15.5-1.3 1.7-.5 2.8.1 3.1 1.8.8 3.4 1.5 6.8 2.3 10.2.5 2.3.1 3-2.1 3.7-11.2 3.1-22.3 3-33.1-1.3C34.5 91 25.5 81 21.1 67c-.2-.4-.3-.8-.5-1.4z" fill="#fff"/></svg>
