<svg xmlns="http://www.w3.org/2000/svg" viewBox="0 0 1000 1000"><path d="M755.1 658c0 55.8-18.1 103.8-54.4 144.1s-83.4 65.2-141.4 74.6v95.7c0 5.1-1.6 9.3-4.9 12.6-3.3 3.3-7.5 4.9-12.6 4.9H468c-4.7 0-8.8-1.7-12.3-5.2s-5.2-7.6-5.2-12.3v-95.7c-24.1-3.3-47.3-8.9-69.7-17-22.4-8-40.9-16.1-55.5-24.3-14.6-8.2-28.1-17-40.5-26.3s-20.9-16.1-25.4-20.5-7.7-7.7-9.6-9.8c-6.2-7.7-6.6-15.1-1.1-22.4l56.3-73.8c2.6-3.6 6.7-5.8 12.6-6.6 5.5-.7 9.8.9 13.1 4.9l1.1 1.1c41.2 36.1 85.5 58.9 132.9 68.4 13.5 2.9 27 4.4 40.5 4.4 29.5 0 55.5-7.8 77.9-23.5 22.4-15.7 33.6-37.9 33.6-66.7 0-10.2-2.7-19.9-8.2-29-5.5-9.1-11.6-16.8-18.3-23-6.7-6.2-17.4-13-32-20.5-14.6-7.5-26.6-13.3-36.1-17.5-9.5-4.2-24.1-10.1-43.7-17.8-14.2-5.8-25.4-10.4-33.6-13.7-8.2-3.3-19.4-8.1-33.6-14.5-14.2-6.4-25.6-12-34.2-17s-18.9-11.4-30.9-19.4c-12-8-21.8-15.8-29.3-23.2-7.5-7.5-15.4-16.4-23.8-26.8-8.4-10.4-14.9-21-19.4-31.7-4.6-10.8-8.4-22.9-11.5-36.4-3.1-13.5-4.6-27.7-4.6-42.7 0-50.3 17.9-94.4 53.6-132.3 35.7-37.9 82.2-62.3 139.5-73.3V27.5c0-4.7 1.7-8.8 5.2-12.3s7.6-5.2 12.3-5.2h73.8c5.1 0 9.3 1.6 12.6 4.9 3.3 3.3 4.9 7.5 4.9 12.6v96.3c20.8 2.2 40.9 6.4 60.4 12.6 19.5 6.2 35.4 12.3 47.6 18.3 12.2 6 23.8 12.9 34.7 20.5 10.9 7.7 18 12.9 21.3 15.9 3.3 2.9 6 5.5 8.2 7.7 6.2 6.6 7.1 13.5 2.7 20.8L690 299.3c-2.9 5.5-7.1 8.4-12.6 8.8-5.1 1.1-10-.2-14.8-3.8-1.1-1.1-3.7-3.3-7.9-6.6s-11.3-8.1-21.3-14.5-20.7-12.2-32-17.5c-11.3-5.3-24.9-10-40.7-14.2-15.9-4.2-31.4-6.3-46.8-6.3-34.6 0-62.9 7.8-84.8 23.5s-32.8 35.9-32.8 60.7c0 9.5 1.5 18.2 4.6 26.3 3.1 8 8.5 15.6 16.1 22.7 7.7 7.1 14.9 13.1 21.6 18s17 10.6 30.6 17c13.7 6.4 24.7 11.3 33.1 14.8 8.4 3.5 21.1 8.5 38.3 15 19.3 7.3 34.1 13 44.3 17.2 10.2 4.2 24.1 10.6 41.6 19.1 17.5 8.6 31.3 16.3 41.3 23.2 10 6.9 21.3 16 33.9 27.3 12.6 11.3 22.2 22.9 29 34.7 6.7 11.8 12.5 25.8 17.2 41.8 4.9 16.2 7.2 33.3 7.2 51.5z" fill="#fff"/></svg>
