<svg xmlns="http://www.w3.org/2000/svg" viewBox="0 0 100 100"><path d="M23 24.1V2.7c0-1.9.7-2.7 2.7-2.7 13 0 25.9-.1 38.9 0 6.7 0 12.9 1.8 18.3 5.8 6.6 4.9 10.6 11.4 11.8 19.6.8 5.8.5 11.4-1.4 17-1.7 4.8-4.5 8.7-8.3 12.1-5 4.4-10.9 6.7-17.5 7.3-1.1.1-2.2.2-3.3.2H40.7c-1.2 0-1.2 0-1.2 1.1V69c0 .9.2 1.2 1.1 1.1H75c1.2.2 2 1.1 2 2.3v9.3c0 1.5-.9 2.2-2.3 2.1H40.6c-1.2 0-1.2 0-1.2 1.3v12.1c0 1.8-.9 2.7-2.7 2.7H25.5c-1.7 0-2.4-.8-2.4-2.4V84.9c0-.8-.3-1-1.1-1H8.2c-2.7 0-3.1-.4-3.1-3.1v-7.6c0-2.1.9-3 3-3H22c.8 0 1.1-.2 1.1-1C23 67.1 23 65 23 63c0-.7-.2-.9-.9-.9H7.3C6 62.1 5 61.3 5 59.9V49.1c0-1.3.9-2.1 2.3-2.1h14.6c.9 0 1.2-.2 1.2-1.1-.1-7.3-.1-14.5-.1-21.8zm16.4 7v14.6c0 1.2 0 1.2 1.2 1.2H61c1.4 0 2.9-.1 4.3-.3 5.3-1 9.4-3.8 11.6-8.8 1.1-2.6 1.4-5.3 1.2-8-.4-6-3.3-10.4-8.8-13-2.7-1.3-5.6-1.4-8.5-1.4H40.5c-.9 0-1.1.3-1.1 1.2v14.5z" fill="#fff"/></svg>
